<svg xmlns="http://www.w3.org/2000/svg" width="219" height="18" viewBox="0 0 219 18" fill="none"><path d="M183 8.4868V10H174V0H175.699V8.4868H183Z" fill="url(#paint0_linear_1447_789)"></path><path d="M200.994 0V5.6456C200.994 8.80188 199.072 11 195.49 11C191.907 11 190 8.80188 190 5.6456V0H191.735V5.52348C191.735 7.91887 193.078 9.36862 195.493 9.36862C197.907 9.36862 199.265 7.91887 199.265 5.52348V0H201H200.994Z" fill="url(#paint1_linear_1447_789)"></path><path d="M219 7.61936C219 9.59114 217.17 11 213.843 11C211.551 11 209.526 10.288 208 8.89433L209.047 7.63457C210.375 8.89432 211.941 9.45726 213.912 9.45726C216.092 9.45726 217.293 8.84868 217.293 7.76846C217.293 6.68824 216.063 6.42047 213.605 6.1953C210.908 5.95795 208.364 5.32199 208.364 3.20111C208.364 1.08023 210.613 0 213.424 0C215.549 0 217.351 0.666397 218.524 1.71923L217.463 2.93638C216.456 2.00222 215.073 1.55795 213.453 1.54274C211.901 1.52753 210.057 1.92919 210.057 3.08548C210.057 4.24177 211.692 4.37566 213.828 4.55215C216.875 4.80471 219 5.45588 219 7.62241V7.61936Z" fill="url(#paint2_linear_1447_789)"></path><path d="M70 2.64222H66.1766V10H62.8092V2.64222H59V0H69.9972V2.64222H70Z" fill="white"></path><path d="M88.9971 0V5.62958C88.9971 8.91428 86.8465 11 83.0044 11C79.1623 11 77 8.91741 77 5.62958V0H80.4979V5.3392C80.4979 6.92223 81.2716 8.06188 83.0074 8.06188C84.7431 8.06188 85.5021 6.92223 85.5021 5.3392V0H89H88.9971Z" fill="white"></path><path d="M105.094 10L102.706 7.05572H100.401V10H97V0H103.984C106.612 0 108.691 1.14369 108.691 3.52786C108.691 5.17009 107.708 6.22874 106.231 6.72727L109 10H105.094ZM103.704 4.72728C104.589 4.72728 105.221 4.46921 105.221 3.6129C105.221 2.7566 104.589 2.49854 103.704 2.49854H100.401V4.72728H103.704Z" fill="white"></path><path d="M128 7.2698C128 8.94135 126.41 10 123.916 10H116V0H123.348C125.843 0 127.432 1.02933 127.432 2.60118C127.432 3.73021 126.597 4.71555 125.092 4.81525C126.681 4.91496 128 5.7566 128 7.27273V7.2698ZM119.403 3.91203H122.78C123.491 3.91203 124 3.69795 124 3.06745C124 2.43696 123.491 2.23754 122.78 2.23754H119.403V3.9091V3.91203ZM124.451 6.84165C124.451 6.19942 123.968 5.94135 123.188 5.94135H119.4V7.7566H123.188C123.968 7.7566 124.451 7.48387 124.451 6.84165Z" fill="white"></path><path d="M134 5.5C134 1.9766 136.591 0 140.493 0C144.394 0 147 1.9766 147 5.5C147 9.02339 144.409 11 140.493 11C136.577 11 134 9.02339 134 5.5ZM143.545 5.5C143.545 3.80489 142.389 2.81508 140.493 2.81508C138.596 2.81508 137.441 3.80187 137.441 5.5C137.441 7.19812 138.596 8.18491 140.493 8.18491C142.389 8.18491 143.545 7.19812 143.545 5.5Z" fill="white"></path><path d="M166 3.2698C166 5.36951 164.355 6.54252 161.882 6.54252H156.747V10H155V0H161.882C164.355 0 166 1.18475 166 3.27273V3.2698ZM164.211 3.28446C164.211 2 163.238 1.49854 161.739 1.49854H156.75V5.07038H161.739C163.238 5.07038 164.211 4.55719 164.211 3.28446Z" fill="url(#paint3_linear_1447_789)"></path><path d="M65 17.5474V18H62V15H62.5657V17.5443H65V17.5474Z" fill="white"></path><path d="M71 15V16.5386C71 17.4 70.4766 18 69.4972 18C68.5178 18 68 17.4 68 16.5386V15H68.4728V16.5059C68.4728 17.1594 68.8387 17.5545 69.4972 17.5545C70.1557 17.5545 70.5272 17.1594 70.5272 16.5059V15H71Z" fill="white"></path><path d="M75.777 16.4816L77 18H76.4326L75.488 16.8337L74.5406 18H74L75.2177 16.4878L74.0107 15H74.5781L75.512 16.148L76.4407 15H76.9839L75.777 16.4847V16.4816Z" fill="white"></path><path d="M84 15V16.5386C84 17.4 83.4765 18 82.4972 18C81.5178 18 81 17.4 81 16.5386V15H81.4728V16.5059C81.4728 17.1594 81.8386 17.5545 82.4972 17.5545C83.1557 17.5545 83.5272 17.1594 83.5272 16.5059V15H84Z" fill="white"></path><path d="M89.4313 18L88.5962 16.9113H87.4615V18H87V15H88.8324C89.4588 15 89.9203 15.3333 89.9203 15.9541C89.9203 16.474 89.5962 16.789 89.1264 16.8838L90 17.9969H89.4313V18ZM88.7995 16.4709C89.1841 16.4709 89.445 16.3333 89.445 15.9602C89.445 15.5872 89.1841 15.4495 88.7995 15.4495H87.456V16.4679H88.7995V16.4709Z" fill="white"></path><path d="M93.5163 15L94.5066 16.5199L95.489 15H96L94.7237 16.9633V18H94.2789V16.9633L93 15H93.5163Z" fill="white"></path><path d="M106.584 17.0712L107 17.2933C106.753 17.7058 106.27 18 105.605 18C104.62 18 104 17.4317 104 16.5C104 15.5683 104.62 15 105.623 15C106.27 15 106.75 15.3 106.995 15.7038L106.573 15.9288C106.377 15.5827 106.042 15.4269 105.615 15.4269C104.92 15.4269 104.459 15.7904 104.459 16.4971C104.459 17.2038 104.92 17.5673 105.615 17.5673C106.045 17.5673 106.383 17.4173 106.581 17.0654L106.584 17.0712Z" fill="white"></path><path d="M113.007 17.2752H110.986L110.585 18H110L111.706 15H112.3L114 18H113.412L113.007 17.2752ZM112.769 16.8379L111.998 15.4495L111.227 16.8379H112.766H112.769Z" fill="white"></path><path d="M119.431 18L118.596 16.9113H117.462V18H117V15H118.832C119.459 15 119.92 15.3333 119.92 15.9541C119.92 16.474 119.596 16.789 119.126 16.8838L120 17.9969H119.431V18ZM118.799 16.4709C119.184 16.4709 119.445 16.3333 119.445 15.9602C119.445 15.5872 119.184 15.4495 118.799 15.4495H117.456V16.4679H118.799V16.4709Z" fill="white"></path><path d="M130.431 18L129.596 16.9113H128.462V18H128V15H129.832C130.459 15 130.92 15.3333 130.92 15.9541C130.92 16.474 130.596 16.789 130.126 16.8838L131 17.9969H130.431V18ZM129.799 16.4709C130.184 16.4709 130.445 16.3333 130.445 15.9602C130.445 15.5872 130.184 15.4495 129.799 15.4495H128.456V16.4679H129.799V16.4709Z" fill="white"></path><path d="M137 17.5505V18H134V15H136.957V15.4495H134.51V16.2508H136.57V16.7003H134.51V17.5474H137V17.5505Z" fill="white"></path><path d="M142.997 15V18H142.585L140.451 15.6361V18H140V15H140.499L142.543 17.2752V15H143H142.997Z" fill="white"></path><path d="M150 15.45H148.734V18H148.258V15.45H147V15H150V15.45Z" fill="white"></path><path d="M155.007 17.2752H152.986L152.585 18H152L153.706 15H154.3L156 18H155.412L155.007 17.2752ZM154.769 16.8379L153.998 15.4495L153.227 16.8379H154.766H154.769Z" fill="white"></path><path d="M162 17.5474V18H159V15H159.566V17.5443H162V17.5474Z" fill="white"></path><path d="M51.9971 0L46.2668 8.85658H33.8101C30.2943 8.85658 26.9839 10.5806 24.8835 13.5022L21.6531 18H11L16.7503 9.99507C21.2678 3.70823 28.388 0 35.9533 0H52H51.9971Z" fill="url(#paint4_linear_1447_789)"></path><path d="M14.8244 6.49195L19 0H6.38534L0 9L10.5723 8.88466C12.2799 8.86691 13.8713 7.97076 14.8216 6.49195H14.8244Z" fill="url(#paint5_linear_1447_789)"></path><defs><linearGradient id="paint0_linear_1447_789" x1="155.332" y1="4.29912" x2="234.202" y2="7.08033" gradientUnits="userSpaceOnUse"><stop stop-color="#FF5165"></stop><stop offset="1" stop-color="#C7000E"></stop></linearGradient><linearGradient id="paint1_linear_1447_789" x1="154.829" y1="3.87333" x2="235.381" y2="6.58721" gradientUnits="userSpaceOnUse"><stop stop-color="#FF5165"></stop><stop offset="1" stop-color="#C7000E"></stop></linearGradient><linearGradient id="paint2_linear_1447_789" x1="155.82" y1="3.31674" x2="233.725" y2="5.93165" gradientUnits="userSpaceOnUse"><stop stop-color="#FF5165"></stop><stop offset="1" stop-color="#C7000E"></stop></linearGradient><linearGradient id="paint3_linear_1447_789" x1="154.824" y1="4.87097" x2="235.908" y2="7.80765" gradientUnits="userSpaceOnUse"><stop stop-color="#FF5165"></stop><stop offset="1" stop-color="#C7000E"></stop></linearGradient><linearGradient id="paint4_linear_1447_789" x1="51.2894" y1="-1.60867" x2="10.3046" y2="16.4201" gradientUnits="userSpaceOnUse"><stop stop-color="#FF5165"></stop><stop offset="1" stop-color="#C7000E"></stop></linearGradient><linearGradient id="paint5_linear_1447_789" x1="18.8922" y1="-0.251397" x2="-0.361754" y2="8.16535" gradientUnits="userSpaceOnUse"><stop stop-color="#FF5165"></stop><stop offset="1" stop-color="#C7000E"></stop></linearGradient></defs></svg>